<?xml version="1.0" encoding="UTF-8" standalone="no"?>
<svg xmlns="http://www.w3.org/2000/svg" xmlns:xlink="http://www.w3.org/1999/xlink" xmlns:serif="http://www.serif.com/" width="100%" height="100%" viewBox="0 0 1500 966" version="1.1" xml:space="preserve" style="fill-rule:evenodd;clip-rule:evenodd;stroke-linecap:round;stroke-linejoin:round;stroke-miterlimit:20;">
    <g transform="matrix(1,0,0,1,-258.066,-117.176)">
        <g transform="matrix(1,0,0,1,-5391.23,0)">
            <g transform="matrix(0.980654,0,0,1.09749,4182.23,-1343.25)">
                <path d="M3025.05,1401.38L3025.05,2139.87C3025.05,2178.88 2989.6,2210.56 2945.94,2210.56L1575.12,2210.56C1531.45,2210.56 1496.01,2178.88 1496.01,2139.87L1496.01,1401.38C1496.01,1362.37 1531.45,1330.69 1575.12,1330.69L2945.94,1330.69C2989.6,1330.69 3025.05,1362.37 3025.05,1401.38Z" style="fill:rgb(21,49,26);"></path>
            </g>
        </g>
        <g transform="matrix(1,0,0,1,-5391.23,0)">
            <g transform="matrix(0.894964,0,0,0.960006,4375.93,-1099.81)">
                <path d="M3025.09,1366.22L3025.09,2175.04C3025.09,2194.67 3007.99,2210.61 2986.93,2210.61L1534.13,2210.61C1513.07,2210.61 1495.97,2194.67 1495.97,2175.04L1495.97,1366.22C1495.97,1346.58 1513.07,1330.64 1534.13,1330.64L2986.93,1330.64C3007.99,1330.64 3025.09,1346.58 3025.09,1366.22Z" style="fill:none;stroke:rgb(158,193,135);stroke-width:25.86px;"></path>
            </g>
        </g>
        <g transform="matrix(1,0,0,1,-5391.23,0)">
            <g transform="matrix(593.774,0,0,593.774,5875.02,695.11)">
                <path d="M-0.009,-0L0.303,-0.7L0.463,-0.7L0.776,-0L0.606,-0L0.35,-0.618L0.414,-0.618L0.157,-0L-0.009,-0ZM0.147,-0.15L0.19,-0.273L0.55,-0.273L0.594,-0.15L0.147,-0.15Z" style="fill:white;fill-rule:nonzero;"></path>
            </g>
        </g>
        <g transform="matrix(1,0,0,1,-5391.23,0)">
            <g transform="matrix(593.774,0,0,593.774,6329.85,695.11)">
                <rect x="0.083" y="-0.7" width="0.162" height="0.7" style="fill:white;"></rect>
            </g>
        </g>
        <g transform="matrix(1,0,0,1,-5391.23,0)">
            <g transform="matrix(593.774,0,0,593.774,6524.61,695.11)">
                <path d="M0.031,-0.147L0.031,-0.256L0.361,-0.7L0.531,-0.7L0.208,-0.256L0.129,-0.279L0.68,-0.279L0.68,-0.147L0.031,-0.147ZM0.408,-0L0.408,-0.147L0.413,-0.279L0.413,-0.41L0.566,-0.41L0.566,-0L0.408,-0Z" style="fill:rgb(158,193,135);fill-rule:nonzero;"></path>
            </g>
        </g>
        <g transform="matrix(1,0,0,1,-5391.23,0)">
            <g transform="matrix(277.728,0,0,279.255,5860.79,918.296)">
                <path d="M0.332,0.008C0.274,0.008 0.222,-0.004 0.177,-0.028C0.132,-0.051 0.096,-0.084 0.071,-0.126C0.045,-0.168 0.032,-0.216 0.032,-0.269C0.032,-0.323 0.045,-0.371 0.071,-0.413C0.096,-0.454 0.132,-0.487 0.177,-0.511C0.222,-0.534 0.274,-0.546 0.332,-0.546C0.389,-0.546 0.438,-0.534 0.48,-0.511C0.522,-0.487 0.553,-0.453 0.573,-0.409L0.452,-0.344C0.438,-0.369 0.421,-0.388 0.4,-0.4C0.379,-0.412 0.356,-0.418 0.331,-0.418C0.304,-0.418 0.28,-0.412 0.259,-0.4C0.238,-0.388 0.221,-0.371 0.208,-0.349C0.196,-0.327 0.19,-0.3 0.19,-0.269C0.19,-0.238 0.196,-0.211 0.208,-0.189C0.221,-0.167 0.238,-0.15 0.259,-0.138C0.28,-0.126 0.304,-0.12 0.331,-0.12C0.356,-0.12 0.379,-0.126 0.4,-0.138C0.421,-0.149 0.438,-0.168 0.452,-0.194L0.573,-0.128C0.553,-0.085 0.522,-0.051 0.48,-0.028C0.438,-0.004 0.389,0.008 0.332,0.008Z" style="fill:white;fill-rule:nonzero;"></path>
            </g>
        </g>
        <g transform="matrix(1,0,0,1,-5391.23,0)">
            <g transform="matrix(277.728,0,0,279.255,6022.98,918.296)">
                <path d="M0.328,0.008C0.271,0.008 0.22,-0.004 0.176,-0.028C0.131,-0.052 0.096,-0.085 0.071,-0.127C0.045,-0.168 0.032,-0.216 0.032,-0.269C0.032,-0.323 0.045,-0.371 0.071,-0.413C0.096,-0.454 0.131,-0.487 0.176,-0.511C0.22,-0.534 0.271,-0.546 0.328,-0.546C0.385,-0.546 0.435,-0.534 0.48,-0.511C0.525,-0.487 0.56,-0.454 0.585,-0.413C0.61,-0.372 0.623,-0.324 0.623,-0.269C0.623,-0.216 0.61,-0.168 0.585,-0.127C0.56,-0.085 0.525,-0.052 0.48,-0.028C0.435,-0.004 0.385,0.008 0.328,0.008ZM0.328,-0.12C0.354,-0.12 0.377,-0.126 0.398,-0.138C0.419,-0.15 0.435,-0.167 0.447,-0.19C0.459,-0.212 0.465,-0.238 0.465,-0.269C0.465,-0.3 0.459,-0.327 0.447,-0.349C0.435,-0.371 0.419,-0.388 0.398,-0.4C0.377,-0.412 0.354,-0.418 0.328,-0.418C0.302,-0.418 0.279,-0.412 0.258,-0.4C0.237,-0.388 0.221,-0.371 0.208,-0.349C0.196,-0.327 0.19,-0.3 0.19,-0.269C0.19,-0.238 0.196,-0.212 0.208,-0.19C0.221,-0.167 0.237,-0.15 0.258,-0.138C0.279,-0.126 0.302,-0.12 0.328,-0.12Z" style="fill:white;fill-rule:nonzero;"></path>
            </g>
        </g>
        <g transform="matrix(1,0,0,1,-5391.23,0)">
            <g transform="matrix(277.728,0,0,279.255,6204.89,918.296)">
                <path d="M0.072,-0L0.072,-0.538L0.221,-0.538L0.221,-0.391L0.193,-0.434C0.212,-0.471 0.238,-0.498 0.273,-0.517C0.307,-0.537 0.346,-0.546 0.39,-0.546C0.439,-0.546 0.482,-0.534 0.519,-0.509C0.557,-0.484 0.581,-0.445 0.593,-0.394L0.538,-0.409C0.556,-0.451 0.585,-0.484 0.625,-0.509C0.664,-0.534 0.71,-0.546 0.761,-0.546C0.804,-0.546 0.842,-0.537 0.875,-0.52C0.908,-0.503 0.933,-0.478 0.953,-0.443C0.971,-0.408 0.981,-0.363 0.981,-0.308L0.981,-0L0.825,-0L0.825,-0.284C0.825,-0.327 0.816,-0.359 0.798,-0.38C0.78,-0.401 0.755,-0.411 0.722,-0.411C0.699,-0.411 0.679,-0.406 0.661,-0.396C0.643,-0.385 0.629,-0.37 0.619,-0.349C0.609,-0.328 0.604,-0.302 0.604,-0.27L0.604,-0L0.448,-0L0.448,-0.284C0.448,-0.327 0.439,-0.359 0.421,-0.38C0.404,-0.401 0.379,-0.411 0.346,-0.411C0.323,-0.411 0.303,-0.406 0.285,-0.396C0.267,-0.385 0.253,-0.37 0.243,-0.349C0.233,-0.328 0.228,-0.302 0.228,-0.27L0.228,-0L0.072,-0Z" style="fill:white;fill-rule:nonzero;"></path>
            </g>
        </g>
        <g transform="matrix(1,0,0,1,-5391.23,0)">
            <g transform="matrix(277.728,0,0,279.255,6496.23,918.296)">
                <path d="M0.072,-0L0.072,-0.538L0.221,-0.538L0.221,-0.391L0.193,-0.434C0.212,-0.471 0.238,-0.498 0.273,-0.517C0.307,-0.537 0.346,-0.546 0.39,-0.546C0.439,-0.546 0.482,-0.534 0.519,-0.509C0.557,-0.484 0.581,-0.445 0.593,-0.394L0.538,-0.409C0.556,-0.451 0.585,-0.484 0.625,-0.509C0.664,-0.534 0.71,-0.546 0.761,-0.546C0.804,-0.546 0.842,-0.537 0.875,-0.52C0.908,-0.503 0.933,-0.478 0.953,-0.443C0.971,-0.408 0.981,-0.363 0.981,-0.308L0.981,-0L0.825,-0L0.825,-0.284C0.825,-0.327 0.816,-0.359 0.798,-0.38C0.78,-0.401 0.755,-0.411 0.722,-0.411C0.699,-0.411 0.679,-0.406 0.661,-0.396C0.643,-0.385 0.629,-0.37 0.619,-0.349C0.609,-0.328 0.604,-0.302 0.604,-0.27L0.604,-0L0.448,-0L0.448,-0.284C0.448,-0.327 0.439,-0.359 0.421,-0.38C0.404,-0.401 0.379,-0.411 0.346,-0.411C0.323,-0.411 0.303,-0.406 0.285,-0.396C0.267,-0.385 0.253,-0.37 0.243,-0.349C0.233,-0.328 0.228,-0.302 0.228,-0.27L0.228,-0L0.072,-0Z" style="fill:white;fill-rule:nonzero;"></path>
            </g>
        </g>
        <g transform="matrix(1,0,0,1,-5391.23,0)">
            <g transform="matrix(277.728,0,0,279.255,6787.56,918.296)">
                <path d="M0.253,0.008C0.207,0.008 0.163,0.003 0.12,-0.009C0.078,-0.019 0.045,-0.033 0.02,-0.05L0.072,-0.162C0.097,-0.147 0.126,-0.134 0.16,-0.124C0.193,-0.115 0.226,-0.11 0.259,-0.11C0.295,-0.11 0.321,-0.114 0.336,-0.123C0.35,-0.132 0.358,-0.144 0.358,-0.159C0.358,-0.172 0.352,-0.181 0.341,-0.188C0.329,-0.194 0.313,-0.199 0.294,-0.202C0.275,-0.205 0.254,-0.209 0.231,-0.212C0.208,-0.215 0.184,-0.22 0.161,-0.226C0.138,-0.231 0.116,-0.24 0.097,-0.251C0.078,-0.262 0.062,-0.278 0.051,-0.297C0.039,-0.316 0.033,-0.341 0.033,-0.372C0.033,-0.406 0.043,-0.436 0.062,-0.462C0.082,-0.488 0.111,-0.509 0.148,-0.523C0.185,-0.538 0.23,-0.546 0.282,-0.546C0.319,-0.546 0.356,-0.542 0.394,-0.534C0.432,-0.526 0.464,-0.514 0.489,-0.499L0.437,-0.388C0.411,-0.403 0.385,-0.414 0.358,-0.419C0.332,-0.425 0.307,-0.428 0.282,-0.428C0.247,-0.428 0.222,-0.423 0.206,-0.414C0.19,-0.405 0.182,-0.393 0.182,-0.378C0.182,-0.365 0.188,-0.355 0.2,-0.348C0.211,-0.341 0.227,-0.336 0.246,-0.332C0.265,-0.328 0.287,-0.325 0.309,-0.322C0.333,-0.319 0.356,-0.314 0.379,-0.308C0.402,-0.302 0.424,-0.294 0.443,-0.283C0.462,-0.272 0.477,-0.257 0.489,-0.238C0.501,-0.218 0.507,-0.194 0.507,-0.163C0.507,-0.13 0.497,-0.1 0.477,-0.074C0.457,-0.049 0.428,-0.029 0.391,-0.014C0.353,0.001 0.307,0.008 0.253,0.008Z" style="fill:white;fill-rule:nonzero;"></path>
            </g>
        </g>
    </g>
</svg>
